<?xml version="1.0" standalone="no"?>
<!DOCTYPE svg PUBLIC "-//W3C//DTD SVG 20010904//EN"
 "http://www.w3.org/TR/2001/REC-SVG-20010904/DTD/svg10.dtd">
<svg version="1.0" xmlns="http://www.w3.org/2000/svg"
 width="360.000000pt" height="360.000000pt" viewBox="0 0 360.000000 360.000000"
 preserveAspectRatio="xMidYMid meet">
<metadata>
Created by potrace 1.11, written by Peter Selinger 2001-2013
</metadata>
<g transform="translate(0.000000,360.000000) scale(0.100000,-0.100000)"
fill="#000000" stroke="none">
<path d="M0 1800 l0 -1800 815 0 c448 0 815 2 815 5 0 3 -9 37 -19 77 -11 40
-27 115 -37 167 -19 108 -13 177 36 411 58 274 60 375 9 489 -29 66 -69 115
-82 102 -6 -6 -26 -11 -45 -11 -35 0 -71 21 -130 75 -88 79 -116 90 -228 85
-72 -3 -129 16 -174 56 -89 80 -110 207 -43 266 87 78 83 70 83 157 0 71 2 82
23 98 34 27 57 64 57 93 0 41 26 67 83 84 37 11 60 25 80 51 46 58 99 38 126
-47 17 -53 33 -63 80 -49 56 16 85 14 116 -11 28 -21 28 -22 22 -109 -6 -83
-5 -88 18 -111 32 -33 47 -75 39 -112 -4 -17 -24 -67 -46 -111 -50 -98 -58
-165 -33 -258 14 -52 15 -72 6 -97 -9 -28 -8 -36 13 -63 99 -132 109 -278 41
-597 -55 -258 -53 -366 11 -587 l15 -53 43 0 43 0 -8 51 c-10 65 16 215 77
439 24 91 49 194 56 230 16 92 4 264 -32 480 -68 397 -48 739 56 974 20 45 38
88 40 96 5 19 -47 74 -159 168 -105 87 -134 127 -229 305 -41 78 -94 162 -122
193 l-48 55 50 -19 c81 -31 116 -65 218 -212 60 -87 170 -207 181 -197 3 4
-21 42 -53 86 -121 164 -134 185 -154 239 -15 39 -20 73 -18 119 l3 64 40 -53
c22 -29 82 -98 133 -153 145 -156 182 -250 182 -467 0 -102 7 -128 27 -94 11
18 47 36 73 36 11 0 40 19 63 41 57 56 138 93 202 92 53 -1 57 -1 205 -32 52
-11 107 -20 123 -20 34 -1 34 -8 -3 -49 -64 -69 -85 -75 -262 -67 -111 5 -158
4 -158 -4 0 -18 71 -48 143 -60 37 -6 97 -16 135 -22 100 -17 157 -49 210
-121 11 -14 6 -14 -50 4 -54 17 -79 19 -178 14 -154 -9 -208 3 -352 75 -64 32
-131 60 -148 61 -28 3 -34 -2 -57 -42 -64 -112 -104 -290 -118 -525 -8 -133 5
-271 46 -516 24 -140 32 -217 33 -319 l1 -135 -64 -240 c-57 -213 -65 -253
-69 -357 l-4 -118 157 0 158 0 -6 128 c-3 70 -15 188 -27 262 -30 201 -37 362
-17 431 9 31 23 62 31 68 10 8 13 23 10 44 -4 23 3 47 24 88 39 71 49 110 62
244 19 187 46 247 117 261 43 8 70 -20 78 -83 11 -82 14 -93 34 -93 25 0 51
-32 51 -64 0 -20 8 -32 30 -44 38 -22 46 -45 29 -95 -12 -35 -11 -43 6 -71 50
-83 57 -105 50 -148 -8 -46 -51 -98 -81 -98 -10 0 -41 24 -69 54 -28 30 -64
60 -80 66 -41 16 -92 4 -137 -32 -26 -20 -51 -31 -76 -32 -33 -1 -39 -6 -57
-41 -17 -35 -20 -59 -18 -175 0 -82 9 -184 21 -260 26 -158 46 -362 39 -389
l-5 -21 764 0 764 0 0 1800 0 1800 -1800 0 -1800 0 0 -1800z m1985 1314 c-3
-23 -15 -53 -26 -66 -34 -38 -55 -89 -69 -161 -7 -37 -16 -69 -20 -72 -4 -3
-13 15 -19 39 -20 81 7 166 93 291 36 53 41 57 44 36 2 -13 1 -43 -3 -67z
m-115 37 c0 -21 -8 -42 -45 -111 l-24 -45 0 57 c-1 47 3 62 25 87 30 36 44 39
44 12z m214 -73 c6 -26 5 -27 -23 -22 -16 3 -39 1 -51 -6 -27 -14 -24 -7 24
57 34 45 31 47 50 -29z m71 36 c0 -10 -8 -20 -17 -22 -18 -3 -26 27 -11 42 12
11 28 0 28 -20z m89 -1 c4 -9 0 -23 -9 -32 -13 -14 -17 -14 -32 1 -13 14 -14
20 -3 32 16 21 36 20 44 -1z m-455 -166 c17 -44 29 -82 27 -84 -2 -2 -24 22
-50 54 -51 65 -82 133 -71 160 11 29 58 -35 94 -130z m621 98 c14 -17 4 -55
-15 -55 -20 0 -28 17 -21 46 7 27 18 30 36 9z m-196 -26 c-3 -5 -10 -7 -15 -3
-5 3 -7 10 -3 15 3 5 10 7 15 3 5 -3 7 -10 3 -15z m-85 0 c17 -6 31 -14 31
-19 0 -4 -15 -19 -34 -33 -60 -47 -129 -170 -151 -271 -5 -25 -8 -27 -19 -15
-20 21 -46 108 -46 154 0 56 43 140 88 170 40 27 81 31 131 14z m155 -37 c-6
-9 -17 -17 -25 -17 -18 0 -24 32 -8 51 11 13 14 13 28 -1 12 -12 13 -19 5 -33z
m60 -13 c-3 -5 -10 -7 -15 -3 -5 3 -7 10 -3 15 3 5 10 7 15 3 5 -3 7 -10 3
-15z m-131 -70 c13 -68 0 -199 -27 -279 -33 -96 -81 -173 -141 -226 -63 -56
-70 -47 -62 95 8 157 57 314 124 399 23 28 75 63 88 59 5 -2 13 -23 18 -48z
m221 35 c7 -18 -8 -77 -28 -113 -13 -24 -13 -24 -31 22 -10 26 -24 52 -31 58
-22 18 -16 26 14 21 18 -2 33 2 41 12 17 20 27 20 35 0z m-102 -58 c24 -28 48
-110 48 -160 0 -99 -48 -176 -122 -194 -23 -6 -43 -10 -44 -9 -1 1 10 36 24
77 23 66 26 91 27 207 l0 132 25 -16 c13 -9 33 -26 42 -37z m153 -58 c-13
-181 -42 -266 -96 -288 -16 -7 -32 -11 -34 -8 -2 2 10 33 27 68 24 51 33 84
38 152 5 73 11 93 35 127 15 23 30 41 33 41 2 0 1 -42 -3 -92z m80 -88 c9 -41
-1 -80 -29 -115 -26 -32 -45 -30 -27 3 6 12 11 36 11 56 0 40 15 86 29 86 5 0
12 -13 16 -30z m52 -185 c2 -6 -6 -21 -18 -34 -20 -21 -28 -22 -93 -18 -84 6
-76 5 -76 17 0 6 5 10 11 10 6 0 25 6 42 14 18 8 39 17 47 20 24 8 83 2 87 -9z"/>
<path d="M1240 2083 c11 -38 60 -189 110 -337 49 -148 90 -274 90 -280 -1 -6
-29 43 -63 109 -34 66 -85 154 -113 195 -40 58 -53 87 -58 127 -8 62 -38 154
-63 188 -32 43 -34 27 -4 -27 28 -50 42 -91 55 -167 l6 -33 -66 62 c-36 33
-69 59 -71 56 -3 -3 26 -35 66 -72 61 -57 199 -240 188 -250 -7 -7 -72 19
-130 53 -31 19 -82 59 -112 90 -30 31 -55 51 -55 44 0 -29 117 -127 200 -168
47 -22 93 -44 103 -47 11 -4 44 -60 86 -148 83 -175 96 -212 44 -133 -102 155
-284 304 -447 366 -60 22 -56 22 -56 9 0 -5 5 -10 11 -10 11 0 80 -30 142 -61
94 -48 217 -153 291 -249 67 -87 65 -88 -25 -13 -94 78 -214 163 -232 163 -7
0 -25 8 -42 17 -44 24 -209 23 -184 -1 2 -3 23 0 45 7 36 9 53 7 115 -12 96
-30 109 -42 73 -66 -15 -10 -53 -28 -83 -41 -31 -13 -49 -23 -40 -24 25 0 79
21 130 50 l45 27 115 -92 c63 -50 125 -108 139 -128 27 -40 36 -43 64 -22 18
13 18 17 1 92 -9 43 -28 114 -41 159 -13 44 -33 121 -44 171 l-20 91 35 59
c20 32 42 80 50 107 17 58 20 152 4 161 -7 5 -8 -4 -4 -28 4 -20 2 -59 -4 -87
-11 -53 -69 -180 -82 -180 -10 0 -29 141 -30 228 -1 69 -2 74 -11 42 -19 -66
21 -313 94 -567 22 -79 38 -148 36 -155 -3 -7 -31 68 -62 167 -32 99 -84 257
-116 350 -31 94 -63 194 -70 223 -6 28 -16 52 -20 52 -5 0 0 -30 10 -67z"/>
<path d="M1530 1889 c-58 -95 -63 -274 -14 -455 9 -33 20 -75 24 -94 6 -29 8
-31 9 -9 0 14 -7 59 -18 100 -37 149 -38 144 29 238 33 46 60 87 60 92 0 21
-17 6 -43 -39 -16 -26 -40 -60 -53 -77 l-26 -30 4 96 c3 79 8 105 30 149 31
62 29 79 -2 29z"/>
<path d="M2224 1488 c4 -13 10 -50 13 -83 7 -75 -18 -153 -110 -345 -54 -113
-63 -137 -52 -149 11 -11 19 -8 50 22 44 42 95 54 168 37 45 -10 142 -63 175
-96 15 -16 28 -12 18 4 -3 6 -30 26 -60 46 -90 60 -227 84 -284 50 -17 -10
-11 -1 18 26 69 65 120 85 217 85 91 0 100 10 17 20 -66 9 -126 -6 -190 -46
-33 -21 -42 -24 -35 -12 19 37 128 148 185 190 54 40 59 58 8 30 -32 -18 -158
-144 -195 -194 -17 -24 -32 -43 -34 -43 -2 0 20 46 48 103 91 179 152 367 121
367 -4 0 -8 -15 -9 -32 0 -18 -8 -49 -16 -68 l-15 -35 -1 38 c-1 38 -24 107
-37 107 -3 0 -3 -10 0 -22z"/>
</g>
</svg>
